<svg width="32" height="32" viewBox="0 0 32 32" fill="none" xmlns="http://www.w3.org/2000/svg">
  <path d="M4 29.3333H28" stroke="#3BA7A1" stroke-width="3" stroke-linecap="round" stroke-linejoin="round"/>
  <path d="M7.46663 11.1734H5.33333C4.6 11.1734 4 11.7734 4 12.5067V24C4 24.7334 4.6 25.3334 5.33333 25.3334H7.46663C8.19997 25.3334 8.79997 24.7334 8.79997 24V12.5067C8.79997 11.7734 8.19997 11.1734 7.46663 11.1734Z" stroke="#3BA7A1" stroke-width="3" stroke-linecap="round" stroke-linejoin="round"/>
  <path d="M17.0656 6.91996H14.9323C14.199 6.91996 13.599 7.51996 13.599 8.2533V24C13.599 24.7333 14.199 25.3333 14.9323 25.3333H17.0656C17.7989 25.3333 18.3989 24.7333 18.3989 24V8.2533C18.3989 7.51996 17.7989 6.91996 17.0656 6.91996Z" stroke="#3BA7A1" stroke-width="3" stroke-linecap="round" stroke-linejoin="round"/>
  <path d="M26.6645 2.66671H24.5312C23.7979 2.66671 23.1979 3.26671 23.1979 4.00004V24C23.1979 24.7334 23.7979 25.3334 24.5312 25.3334H26.6645C27.3979 25.3334 27.9979 24.7334 27.9979 24V4.00004C27.9979 3.26671 27.3979 2.66671 26.6645 2.66671Z" stroke="#3BA7A1" stroke-width="3" stroke-linecap="round" stroke-linejoin="round"/>
</svg>
