<svg width="32" height="32" viewBox="0 0 32 32" fill="none" xmlns="http://www.w3.org/2000/svg">
  <path d="M26.3867 19.9067C23.64 22.64 19.7067 23.48 16.2533 22.4L9.97333 28.6667C9.52 29.1333 8.62667 29.4133 7.98667 29.32L5.08 28.92C4.12 28.7867 3.22667 27.88 3.08 26.92L2.68 24.0133C2.58667 23.3733 2.89333 22.48 3.33333 22.0267L9.6 15.76C8.53333 12.2933 9.36 8.36 12.1067 5.62667C16.04 1.69333 22.4267 1.69333 26.3733 5.62667C30.32 9.56 30.32 15.9733 26.3867 19.9067Z" stroke="#3BA7A1" stroke-width="3" stroke-miterlimit="10" stroke-linecap="round" stroke-linejoin="round"/>
  <path d="M9.18667 23.32L12.2533 26.3867" stroke="#3BA7A1" stroke-width="3" stroke-miterlimit="10" stroke-linecap="round" stroke-linejoin="round"/>
  <path d="M19.3333 14.6667C20.4379 14.6667 21.3333 13.7712 21.3333 12.6667C21.3333 11.5621 20.4379 10.6667 19.3333 10.6667C18.2288 10.6667 17.3333 11.5621 17.3333 12.6667C17.3333 13.7712 18.2288 14.6667 19.3333 14.6667Z" stroke="#3BA7A1" stroke-width="3" stroke-linecap="round" stroke-linejoin="round"/>
</svg>
