<svg width="20" height="20" viewBox="0 0 20 20" fill="none" xmlns="http://www.w3.org/2000/svg">
  <path fill-rule="evenodd" clip-rule="evenodd" d="M13.8945 10.9419C15.0362 11.7169 15.8362 12.7669 15.8362 14.1669V16.6669H19.1695V14.1669C19.1695 12.3502 16.1945 11.2752 13.8945 10.9419Z" fill="#1E1F22"/>
  <path d="M7.5013 10.0002C9.34225 10.0002 10.8346 8.50778 10.8346 6.66683C10.8346 4.82588 9.34225 3.3335 7.5013 3.3335C5.66035 3.3335 4.16797 4.82588 4.16797 6.66683C4.16797 8.50778 5.66035 10.0002 7.5013 10.0002Z" fill="#1E1F22"/>
  <path fill-rule="evenodd" clip-rule="evenodd" d="M12.5029 10.0002C14.3445 10.0002 15.8362 8.5085 15.8362 6.66683C15.8362 4.82516 14.3445 3.3335 12.5029 3.3335C12.1112 3.3335 11.7445 3.41683 11.3945 3.5335C12.0862 4.39183 12.5029 5.4835 12.5029 6.66683C12.5029 7.85016 12.0862 8.94183 11.3945 9.80016C11.7445 9.91683 12.1112 10.0002 12.5029 10.0002Z" fill="#1E1F22"/>
  <path fill-rule="evenodd" clip-rule="evenodd" d="M7.50456 10.8335C5.27956 10.8335 0.837891 11.9502 0.837891 14.1668V16.6668H14.1712V14.1668C14.1712 11.9502 9.72956 10.8335 7.50456 10.8335Z" fill="#1E1F22"/>
</svg>
