<svg preserveAspectRatio="none" width="100%" height="100%" overflow="visible" style="display: block;" viewBox="0 0 284.151 42.8454" fill="none" xmlns="http://www.w3.org/2000/svg">
<g id="Group">
<path id="Vector" d="M19.1682 12.776H23.6347V22.9052C20.9837 25.0472 17.2807 26.1373 13.688 26.1373C5.81113 26.1373 0 20.6571 0 13.0687C0 5.48027 5.80688 0 13.7601 0C18.006 0 21.5648 1.41673 23.9613 4.1399L20.9837 7.04546C18.9858 5.04762 16.6996 4.1399 13.9764 4.1399C8.56823 4.1399 4.75495 7.80472 4.75495 13.0687C4.75495 18.3326 8.56823 21.9974 13.9382 21.9974C15.7537 21.9974 17.5309 21.6327 19.164 20.691V12.776H19.1682ZM33.5433 0.360544H38.2643V21.7811H51.5536V25.7725H33.5476V0.360544H33.5433ZM58.4124 14.7017V0.360544H63.1334V14.5193C63.1334 19.7493 65.4918 21.9974 69.5935 21.9974C73.6953 21.9974 76.0197 19.7451 76.0197 14.5193V0.360544H80.6686V14.7017C80.6686 22.1077 76.4948 26.1373 69.5596 26.1373C62.6244 26.1373 58.4124 22.1077 58.4124 14.7017ZM89.1605 13.0687C89.1605 5.48027 94.9674 0 102.776 0C106.916 0 110.471 1.48884 112.833 4.24594L109.784 7.11332C107.934 5.11548 105.644 4.13565 102.997 4.13565C97.7329 4.13565 93.9197 7.83866 93.9197 13.0644C93.9197 18.2902 97.7329 21.9932 102.997 21.9932C105.648 21.9932 107.934 21.0134 109.784 18.9816L112.833 21.8872C110.475 24.6443 106.916 26.1331 102.742 26.1331C94.9716 26.1331 89.1647 20.6528 89.1647 13.0644L89.1605 13.0687ZM118.712 13.0687C118.712 5.55238 124.519 0 132.4 0C140.281 0 146.088 5.51845 146.088 13.0687C146.088 20.6189 140.281 26.1373 132.4 26.1373C124.519 26.1373 118.712 20.585 118.712 13.0687ZM141.329 13.0687C141.329 7.87683 137.516 4.1399 132.4 4.1399C127.285 4.1399 123.472 7.88107 123.472 13.0687C123.472 18.2563 127.285 21.9974 132.4 21.9974C137.516 21.9974 141.329 18.2563 141.329 13.0687ZM152.654 23.0876L154.287 19.4227C156.319 21.0558 159.551 22.218 162.673 22.218C166.631 22.218 168.302 20.8013 168.302 18.9137C168.302 13.4335 153.202 17.0262 153.202 7.58839C153.202 3.48667 156.468 0 163.437 0C166.487 0 169.681 0.797438 171.895 2.25234L170.406 5.91717C168.12 4.57255 165.613 3.91933 163.399 3.91933C159.479 3.91933 157.88 5.4421 157.88 7.36783C157.88 12.776 172.947 9.25538 172.947 18.5871C172.947 22.6549 169.642 26.1373 162.673 26.1373C158.716 26.1373 154.758 24.903 152.654 23.0876ZM200.395 21.815V25.7725H181.337V0.360544H199.886V4.31805H186.054V10.9266H198.325V14.812H186.054V21.8193H200.395V21.815ZM208.31 11.0327H218.295V14.8078H208.31V11.0327ZM251.113 25.7725L251.075 8.92877L242.727 22.8712H240.623L232.271 9.14934V25.7768H227.771V0.364786H231.656L241.747 17.2086L251.656 0.364786H255.541L255.579 25.7768H251.113V25.7725ZM266.141 0.360544H270.862V21.7811H284.151V25.7725H266.145V0.360544H266.141Z" fill="var(--fill-0, #7826EB)"/>
<path id="Vector_2" d="M26.3313 40.5039H21.5637L20.6263 42.7096H18.8023L23.0907 33.1785H24.834L29.1393 42.7096H27.2857L26.3313 40.5039ZM25.746 39.1127L23.9475 34.9473L22.1618 39.1127H25.7417H25.746ZM31.4468 38.5528V33.1743H33.2156V38.4849C33.2156 40.4445 34.1021 41.2886 35.6376 41.2886C37.1731 41.2886 38.0469 40.4445 38.0469 38.4849V33.1743H39.7902V38.5528C39.7902 41.3311 38.2251 42.8411 35.6249 42.8411C33.0247 42.8411 31.4426 41.3311 31.4426 38.5528H31.4468ZM50.1697 37.8317H51.8451V41.6322C50.8526 42.4339 49.4613 42.8453 48.1125 42.8453C45.156 42.8453 42.98 40.7881 42.98 37.9419C42.98 35.0958 45.1602 33.0385 48.1422 33.0385C49.737 33.0385 51.0689 33.5688 51.9682 34.591L50.8526 35.6811C50.1018 34.9303 49.245 34.591 48.2227 34.591C46.1952 34.591 44.7615 35.9653 44.7615 37.9419C44.7615 39.9186 46.191 41.2929 48.2058 41.2929C48.8887 41.2929 49.5546 41.1571 50.1654 40.8008V37.8317H50.1697ZM64.3157 42.7096L64.303 36.3895L61.1726 41.6195H60.3837L57.2533 36.4701V42.7054H55.5651V33.1743H57.0243L60.8079 39.4944L64.5236 33.1743H65.9785L65.9912 42.7054H64.3157V42.7096ZM77.1002 41.225V42.7096H69.953V33.1785H76.9136V34.6631H71.726V37.1403H76.3282V38.5994H71.726V41.2293H77.1045L77.1002 41.225ZM88.9303 33.1743V42.7054H87.4754L82.2199 36.2495V42.7054H80.4639V33.1743H81.923L87.1785 39.6301V33.1743H88.9345H88.9303ZM94.8093 34.6758H91.6492V33.1785H99.7381V34.6758H96.5781V42.7096H94.8093V34.6758ZM109.613 41.225V42.7096H102.466V33.1785H109.426V34.6631H104.239V37.1403H108.841V38.5994H104.239V41.2293H109.617L109.613 41.225ZM112.972 33.1743H117.138C120.23 33.1743 122.338 35.0788 122.338 37.9419C122.338 40.8051 120.226 42.7096 117.138 42.7096H112.972V33.1785V33.1743ZM117.057 41.2123C119.182 41.2123 120.556 39.9186 120.556 37.9419C120.556 35.9653 119.182 34.6716 117.057 34.6716H114.741V41.2081H117.057V41.2123ZM139.224 33.1743V42.7054H137.455V38.6206H132.526V42.7054H130.758V33.1743H132.526V37.1106H137.455V33.1743H139.224ZM150.32 41.225V42.7096H143.173V33.1785H150.134V34.6631H144.946V37.1403H149.548V38.5994H144.946V41.2293H150.325L150.32 41.225ZM159.864 40.5039H155.097L154.155 42.7096H152.331L156.619 33.1785H158.363L162.664 42.7096H160.81L159.856 40.5039H159.864ZM159.275 39.1127L157.476 34.9473L155.69 39.1127H159.27H159.275ZM165.264 33.1743H167.033V41.2081H172.017V42.7054H165.264V33.1743ZM175.86 34.6758H172.7V33.1785H180.788V34.6758H177.628V42.7096H175.86V34.6758ZM191.978 33.1743V42.7054H190.209V38.6206H185.28V42.7054H183.512V33.1743H185.28V37.1106H190.209V33.1743H191.978ZM201.072 33.1743H202.841V41.2081H207.825V42.7054H201.072V33.1743ZM216.864 40.5039H212.096L211.155 42.7096H209.331L213.619 33.1785H215.363L219.664 42.7096H217.81L216.856 40.5039H216.864ZM216.279 39.1127L214.48 34.9473L212.695 39.1127H216.275H216.279ZM230.739 40.1222C230.739 41.7552 229.458 42.7096 227.006 42.7096H222.268V33.1785H226.735C229.021 33.1785 230.247 34.1456 230.247 35.6557C230.247 36.6355 229.755 37.3566 229.021 37.7511C230.043 38.0777 230.734 38.8794 230.734 40.1222H230.739ZM224.041 34.5656V37.1954H226.548C227.774 37.1954 228.469 36.7585 228.469 35.889C228.469 35.0194 227.774 34.5698 226.548 34.5698H224.041V34.5656ZM228.957 39.944C228.957 38.9896 228.236 38.5697 226.9 38.5697H224.041V41.3226H226.9C228.236 41.3226 228.957 40.8984 228.957 39.9483V39.944ZM2.0646 39.7659L3.26924 33.433H6.1748C6.82802 33.433 7.32854 33.556 7.67636 33.8063C8.02418 34.0523 8.19809 34.4129 8.19809 34.8837C8.19809 35.2824 8.10053 35.6175 7.90117 35.889C7.70181 36.1604 7.44307 36.364 7.1207 36.504C6.79833 36.644 6.43779 36.7119 6.04331 36.7119L6.2766 36.3513C6.78136 36.3513 7.18433 36.4743 7.48549 36.7161C7.78665 36.9621 7.93511 37.3099 7.93511 37.7596C7.93511 38.2092 7.82058 38.5867 7.58729 38.8878C7.354 39.189 7.03587 39.4096 6.62442 39.5538C6.21298 39.698 5.75063 39.7701 5.23315 39.7701H2.06884L2.0646 39.7659ZM3.65523 38.663H5.30525C5.69125 38.663 5.99241 38.5867 6.20874 38.434C6.42506 38.2813 6.53534 38.0522 6.53534 37.7511C6.53534 37.5178 6.45475 37.3481 6.29357 37.2505C6.13239 37.153 5.91182 37.1021 5.63187 37.1021H3.80794L4.0073 36.0332H5.57248C5.8185 36.0332 6.02634 35.9992 6.20025 35.9356C6.37416 35.8678 6.50565 35.7702 6.59473 35.6345C6.68804 35.4987 6.73046 35.3333 6.73046 35.1424C6.73046 34.9303 6.65411 34.7776 6.49717 34.6843C6.34447 34.591 6.1239 34.5443 5.84395 34.5443H4.43147L3.65099 38.6715L3.65523 38.663ZM10.7346 39.7659L11.2351 37.1615L11.3878 38.0862L9.61482 33.4373H11.0103L12.3592 36.9918L11.5151 37.0003L14.234 33.433H15.6804L12.1556 38.0946L12.6391 37.1615L12.1386 39.7659H10.7346Z" fill="var(--fill-0, #4D4D4D)"/>
</g>
</svg>
