<svg preserveAspectRatio="none" width="100%" height="100%" overflow="visible" style="display: block;" viewBox="0 0 46.2069 59.4251" fill="none" xmlns="http://www.w3.org/2000/svg">
<path id="Vector" d="M8.7029 47.0913C9.2119 47.77 9.77181 48.419 10.3911 49.0383C11.0104 49.6575 11.6594 50.2174 12.338 50.7265C13.8057 51.8251 15.4005 52.6691 17.0675 53.2587C18.9551 53.9289 20.9317 54.2725 22.9083 54.2937C23.0356 54.2937 23.1671 54.2937 23.2943 54.2937C25.2752 54.2725 27.2518 53.9289 29.1394 53.2587C30.8064 52.6691 32.4013 51.8251 33.8689 50.7265C34.5476 50.2174 35.1965 49.6575 35.8158 49.0383C36.4351 48.419 36.995 47.77 37.504 47.0913C38.6026 45.6237 39.4467 44.0288 40.0363 42.3618C40.7065 40.4743 41.0501 38.4976 41.0713 36.5168C41.0713 36.3895 41.0713 36.258 41.0713 36.1308C41.0501 34.1499 40.7065 32.1733 40.0363 30.29C39.4467 28.623 38.6026 27.0238 37.504 25.5605C36.995 24.8818 36.4351 24.2328 35.8158 23.6135C35.2008 22.9985 34.5476 22.4343 33.8689 21.9253L37.5295 18.2647C38.1912 18.795 38.8317 19.3676 39.4467 19.9784C40.0618 20.5934 40.6302 21.2339 41.1604 21.8956C42.2802 23.2954 43.2133 24.7927 43.9599 26.3621C44.7955 28.114 45.3978 29.9464 45.7668 31.8212C45.9026 32.4999 46.0044 33.187 46.0765 33.8742C46.2504 35.503 46.2504 37.1445 46.0765 38.7734C46.0044 39.4605 45.8983 40.1477 45.7668 40.8263C45.3978 42.6969 44.7955 44.5336 43.9641 46.2854C43.2176 47.8506 42.2844 49.3521 41.1646 50.7519C40.6344 51.4136 40.0618 52.0541 39.451 52.6691C38.8359 53.2842 38.1954 53.8526 37.5337 54.3828C36.134 55.5026 34.6366 56.4358 33.0672 57.1823C31.3154 58.0179 29.483 58.6203 27.6081 58.985C26.9295 59.1208 26.2423 59.2226 25.5552 59.2947C23.9263 59.4686 22.2848 59.4686 20.656 59.2947C19.9688 59.2226 19.2817 59.1165 18.603 58.985C16.7282 58.616 14.8958 58.0137 13.144 57.1781C11.5788 56.4315 10.0772 55.4984 8.67745 54.3786C8.01575 53.8483 7.37525 53.2757 6.7602 52.6649C6.14516 52.0499 5.57677 51.4094 5.04656 50.7477C3.92675 49.3479 2.99358 47.8506 2.24704 46.2812C1.41142 44.5293 0.809103 42.6969 0.440076 40.8221C0.304342 40.1434 0.202541 39.4563 0.130432 38.7691C-0.0434774 37.1403 -0.0434774 35.4988 0.130432 33.8699C0.202541 33.1828 0.308583 32.4956 0.440076 31.817C0.809103 29.9464 1.41142 28.1097 2.24704 26.3579C2.99358 24.7927 3.92675 23.2912 5.04656 21.8914C5.57677 21.2297 6.1494 20.5892 6.7602 19.9741L26.7344 0L30.3652 3.63089L10.3911 23.605C9.77605 24.2201 9.2119 24.8733 8.7029 25.552C7.6043 27.0196 6.7602 28.6145 6.17061 30.2815C5.50042 32.169 5.15684 34.1457 5.13563 36.1265C5.13563 36.2538 5.13563 36.3853 5.13563 36.5125C5.15684 38.4934 5.50042 40.47 6.17061 42.3533C6.7602 44.0203 7.6043 45.6152 8.7029 47.0828V47.0913Z" fill="var(--fill-0, white)"/>
</svg>
