<svg width="20" height="20" viewBox="0 0 20 20" fill="none" xmlns="http://www.w3.org/2000/svg">
  <path d="M17.5026 4.16667C16.5776 3.875 15.5609 3.75 14.5859 3.75C12.9609 3.75 11.2109 4.08333 10.0026 5C8.79427 4.08333 7.04427 3.75 5.41927 3.75C3.79427 3.75 2.04427 4.08333 0.835938 5V17.2083C0.835938 17.4167 1.04427 17.625 1.2526 17.625C1.33594 17.625 1.3776 17.5833 1.46094 17.5833C2.58594 17.0417 4.21094 16.6667 5.41927 16.6667C7.04427 16.6667 8.79427 17 10.0026 17.9167C11.1276 17.2083 13.1693 16.6667 14.5859 16.6667C15.9609 16.6667 17.3776 16.9167 18.5443 17.5417C18.6276 17.5833 18.6693 17.5833 18.7526 17.5833C18.9609 17.5833 19.1693 17.375 19.1693 17.1667V5C18.6693 4.625 18.1276 4.375 17.5026 4.16667ZM17.5026 15.4167C16.5859 15.125 15.5859 15 14.5859 15C13.1693 15 11.1276 15.5417 10.0026 16.25V6.66667C11.1276 5.95833 13.1693 5.41667 14.5859 5.41667C15.5859 5.41667 16.5859 5.54167 17.5026 5.83333V15.4167Z" fill="#1E1F22"/>
  <path d="M14.5869 8.75C15.3202 8.75 16.0286 8.825 16.6702 8.96667V7.7C16.0119 7.575 15.3036 7.5 14.5869 7.5C13.1702 7.5 11.8869 7.74167 10.8369 8.19167V9.575C11.7786 9.04167 13.0869 8.75 14.5869 8.75Z" fill="#1E1F22"/>
  <path d="M10.8369 10.4085V11.7918C11.7786 11.2585 13.0869 10.9668 14.5869 10.9668C15.3202 10.9668 16.0286 11.0418 16.6702 11.1835V9.9168C16.0119 9.7918 15.3036 9.7168 14.5869 9.7168C13.1702 9.7168 11.8869 9.9668 10.8369 10.4085Z" fill="#1E1F22"/>
  <path d="M14.5869 11.9414C13.1702 11.9414 11.8869 12.1831 10.8369 12.6331V14.0164C11.7786 13.4831 13.0869 13.1914 14.5869 13.1914C15.3202 13.1914 16.0286 13.2664 16.6702 13.4081V12.1414C16.0119 12.0081 15.3036 11.9414 14.5869 11.9414Z" fill="#1E1F22"/>
</svg>
