<svg preserveAspectRatio="none" width="100%" height="100%" overflow="visible" style="display: block;" viewBox="0 0 35.9357 50.6544" fill="none" xmlns="http://www.w3.org/2000/svg">
<path id="Vector" d="M7.25754 39.7617C7.72413 40.47 8.26707 41.1402 8.8906 41.7595C9.51413 42.383 10.1843 42.926 10.8884 43.3926C12.5045 44.4615 14.3072 45.1232 16.1566 45.3862C17.357 45.5558 18.5786 45.5558 19.779 45.3862C21.6284 45.1232 23.4354 44.4615 25.0472 43.3926C25.7556 42.926 26.4258 42.383 27.0451 41.7595C27.6643 41.136 28.2115 40.4658 28.6781 39.7617C29.747 38.1498 30.4087 36.3429 30.6717 34.4935C30.8414 33.2931 30.8414 32.0715 30.6717 30.8711C30.4087 29.0217 29.747 27.2147 28.6781 25.6029C28.2115 24.8945 27.6686 24.2243 27.0451 23.605C26.4215 22.9815 25.7513 22.4386 25.0472 21.972L28.7333 18.286C29.4119 18.795 30.0609 19.3549 30.6802 19.9742C31.2952 20.5892 31.8594 21.2424 32.3684 21.9211C33.467 23.3887 34.3111 24.9836 34.9007 26.6506C35.5709 28.5381 35.9144 30.5148 35.9357 32.4914C35.9357 32.6187 35.9357 32.7501 35.9357 32.8774C35.9144 34.8583 35.5709 36.8349 34.9007 38.7225C34.3111 40.3894 33.467 41.9843 32.3684 43.4519C31.8594 44.1306 31.2995 44.7796 30.6802 45.3989C30.0609 46.0182 29.4119 46.5781 28.7333 47.0871C27.2656 48.1857 25.6707 49.0298 24.0038 49.6194C22.1162 50.2896 20.1396 50.6331 18.1587 50.6544C18.0315 50.6544 17.9 50.6544 17.7727 50.6544C15.7918 50.6331 13.8152 50.2896 11.9319 49.6194C10.2649 49.0298 8.66579 48.1857 7.2024 47.0871C6.52373 46.5781 5.87475 46.0182 5.25546 45.3989C4.63617 44.7796 4.07627 44.1306 3.56727 43.4519C2.46867 41.9843 1.62457 40.3894 1.03498 38.7225C0.364787 36.8349 0.0212085 34.8583 0 32.8816C0 32.7544 0 32.6229 0 32.4956C0.0212085 30.5148 0.364787 28.5381 1.03498 26.6506C1.62457 24.9836 2.46867 23.3887 3.56727 21.9211C4.07627 21.2424 4.63617 20.5934 5.25546 19.9742L25.2296 0L28.8605 3.63089L8.88635 23.605C8.26283 24.2286 7.71989 24.8988 7.2533 25.6029C6.18439 27.2147 5.52269 29.0217 5.2597 30.8711C5.09004 32.0715 5.09004 33.2931 5.2597 34.4935C5.52269 36.3429 6.18439 38.1498 7.2533 39.7617H7.25754Z" fill="var(--fill-0, #7826EB)"/>
</svg>
