<svg preserveAspectRatio="none" width="100%" height="100%" overflow="visible" style="display: block;" viewBox="0 0 56.4527 68.1726" fill="none" xmlns="http://www.w3.org/2000/svg">
<path id="Vector" d="M56.3297 42.6291C56.2619 43.3586 56.1643 44.0882 56.0371 44.8093C55.8165 46.1072 55.4984 47.3882 55.0912 48.6523C54.5313 50.3914 53.7932 52.088 52.8897 53.7126C52.0541 55.2184 51.0658 56.6563 49.9333 58.0179C49.3903 58.6712 48.8092 59.3032 48.1984 59.914C47.5876 60.529 46.9513 61.1059 46.3024 61.6488C44.9408 62.7814 43.4986 63.7654 41.997 64.6053C40.3682 65.5088 38.6758 66.2426 36.9367 66.8067C35.6769 67.2139 34.3917 67.5278 33.098 67.7526C32.3726 67.8799 31.6431 67.9732 30.9135 68.0453C29.1277 68.215 27.325 68.215 25.5435 68.0453C24.8097 67.9732 24.0844 67.8799 23.359 67.7526C22.0611 67.5278 20.7801 67.2139 19.5203 66.8067C17.7812 66.2468 16.0803 65.513 14.4599 64.6053C12.9584 63.7654 11.5162 62.7814 10.1546 61.6488C9.5014 61.1016 8.86939 60.5248 8.25858 59.914C7.64778 59.3032 7.06667 58.6712 6.52373 58.0179C5.3912 56.6563 4.40288 55.2184 3.56727 53.7126C2.65954 52.088 1.92573 50.3914 1.36583 48.6523C0.958624 47.3925 0.644738 46.1072 0.419928 44.8093C0.296919 44.084 0.19936 43.3586 0.127251 42.6291C-0.042417 40.8433 -0.042417 39.0406 0.127251 37.2548C0.195118 36.5253 0.292677 35.7957 0.419928 35.0746C0.644738 33.7766 0.958624 32.4956 1.36583 31.2359C1.92573 29.4925 2.65954 27.7958 3.56727 26.1755C4.40288 24.6697 5.3912 23.2318 6.52373 21.8702C7.06667 21.217 7.64778 20.585 8.25858 19.9742L28.2327 0L31.8679 3.63513L11.8937 23.6093C11.2787 24.2243 10.7103 24.8606 10.1758 25.5223C9.05602 26.9221 8.12285 28.4194 7.38055 29.9888C6.54494 31.7406 5.94262 33.5773 5.57359 35.4479C5.4421 36.1265 5.33605 36.8094 5.26395 37.5008C5.09004 39.1297 5.09004 40.7712 5.26395 42.4C5.33605 43.0872 5.4421 43.7743 5.57359 44.453C5.94262 46.3236 6.54494 48.1602 7.38055 49.912C8.12709 51.4815 9.05602 52.9788 10.1758 54.3786C10.706 55.0403 11.2787 55.6808 11.8937 56.2916C12.5088 56.9066 13.145 57.4792 13.811 58.0095C15.2107 59.1293 16.708 60.0624 18.2732 60.809C20.0251 61.6446 21.8617 62.2427 23.7323 62.6117C24.411 62.7474 25.0981 62.8535 25.7853 62.9256C27.4141 63.0995 29.0556 63.0995 30.6844 62.9256C31.3716 62.8535 32.0587 62.7517 32.7374 62.6117C34.6122 62.2427 36.4447 61.6446 38.1922 60.809C39.7617 60.0624 41.259 59.1293 42.6587 58.0095C43.3205 57.4792 43.9609 56.9066 44.576 56.2916C45.1868 55.6808 45.7594 55.0403 46.2896 54.3786C47.4095 52.9788 48.3426 51.4815 49.0892 49.912C49.9248 48.1602 50.5229 46.3236 50.8961 44.453C51.0276 43.7743 51.1337 43.0872 51.2058 42.4C51.3797 40.7712 51.3797 39.1297 51.2058 37.5008C51.1337 36.8137 51.0319 36.1265 50.8961 35.4479C50.5271 33.573 49.9248 31.7406 49.0892 29.9888C48.3426 28.4194 47.4095 26.9221 46.2896 25.5223C45.7594 24.8606 45.1868 24.2201 44.576 23.6093C43.9609 22.9942 43.3205 22.4259 42.6587 21.8914L35.3121 29.238L33.2719 31.2825V31.274L26.4088 38.1286H26.413C26.3791 38.1668 26.3494 38.2007 26.3197 38.2347C26.2476 38.3152 26.1798 38.4001 26.1161 38.4892C26.1034 38.5061 26.0907 38.5231 26.0822 38.5443C26.0355 38.6164 25.9931 38.6885 25.9549 38.7649C25.938 38.7988 25.921 38.837 25.8998 38.8794C25.8744 38.9303 25.8531 38.9854 25.8319 39.0363C25.7853 39.1593 25.7471 39.2824 25.7174 39.4096C25.7132 39.4478 25.7047 39.4902 25.6962 39.5284C25.6877 39.5708 25.6835 39.6132 25.6792 39.6514C25.6538 39.855 25.6538 40.0628 25.6792 40.2664C25.6792 40.3046 25.6877 40.347 25.6962 40.3894C25.7004 40.4276 25.7089 40.47 25.7174 40.5125C25.7344 40.593 25.7598 40.6736 25.781 40.75C25.7938 40.7924 25.8065 40.8306 25.8235 40.8688C25.8956 41.0639 25.9974 41.2505 26.1161 41.4287C26.201 41.5517 26.2985 41.6704 26.4088 41.7807C26.9093 42.2812 27.5668 42.5315 28.2243 42.5315C28.8817 42.5315 29.5349 42.2812 30.0397 41.7807C30.0651 41.7553 30.0906 41.7298 30.1118 41.7044C30.1373 41.6789 30.1627 41.6492 30.1839 41.6238L35.1679 36.6355C35.1679 36.6355 35.1679 36.6398 35.1722 36.644C35.1849 36.678 35.2018 36.7076 35.2146 36.7416C35.2782 36.8731 35.3333 37.0046 35.3842 37.1403C35.4097 37.2082 35.4394 37.2718 35.4606 37.3439C35.5242 37.5136 35.5751 37.6832 35.6218 37.8571C35.643 37.925 35.6599 37.9929 35.6769 38.0607C35.7108 38.2007 35.7405 38.3407 35.7702 38.4807C35.783 38.5528 35.7957 38.6207 35.8042 38.6928C35.9781 39.7489 35.9357 40.8306 35.6727 41.8698C35.6557 41.9377 35.6387 42.0098 35.6175 42.0776C35.5624 42.2812 35.4945 42.4891 35.4182 42.6884C35.3927 42.7563 35.363 42.8242 35.3376 42.892C35.2824 43.0278 35.2231 43.1593 35.1637 43.2908C35.0491 43.5325 34.9219 43.7658 34.7819 43.9949C34.6377 44.2282 34.485 44.4487 34.3196 44.6651C34.2517 44.7541 34.1838 44.839 34.1117 44.9238C33.9675 45.0935 33.8191 45.2547 33.6621 45.4159C33.5433 45.5346 33.4203 45.6491 33.2973 45.7594C33.2125 45.8315 33.1277 45.9036 33.0428 45.9715C32.572 46.3533 32.0672 46.6671 31.537 46.9216C29.4459 47.9184 26.9899 47.9184 24.8945 46.9216C24.3643 46.6671 23.8595 46.3533 23.3845 45.9715C23.2996 45.9036 23.2148 45.8315 23.1342 45.7594C23.0918 45.7213 23.0494 45.6873 23.0112 45.6449C22.9264 45.5728 22.85 45.4922 22.7694 45.4116C22.4895 45.1317 22.2392 44.839 22.0102 44.5293C21.7175 44.1349 21.4715 43.7149 21.2636 43.2823C21.2509 43.2483 21.2297 43.2186 21.217 43.1847C21.1576 43.0532 21.1024 42.9217 21.0473 42.786C21.0219 42.7224 20.9964 42.6503 20.9752 42.5824C20.9116 42.4127 20.8607 42.2431 20.8098 42.0734C20.7928 42.0013 20.7716 41.9334 20.7546 41.8655C20.7207 41.7256 20.6868 41.5856 20.6613 41.4456C20.6486 41.3735 20.6359 41.3056 20.6231 41.2335C20.4492 40.1816 20.4916 39.0957 20.7546 38.0565C20.7674 37.9886 20.7886 37.9208 20.8098 37.8487C20.8692 37.6451 20.9328 37.4372 21.0134 37.2379C21.0388 37.17 21.0685 37.1021 21.094 37.0343C21.1491 36.9028 21.2085 36.7713 21.2679 36.6398C21.3824 36.398 21.5096 36.1605 21.6496 35.9314C21.9593 35.4266 22.3325 34.9473 22.7737 34.5104L42.7478 14.5363L46.3787 18.1672L48.1942 19.9826C48.805 20.5934 49.3861 21.2255 49.929 21.8787C51.0615 23.2403 52.0499 24.6782 52.8855 26.184C53.789 27.8086 54.527 29.5052 55.0869 31.2443C55.4899 32.5041 55.808 33.7851 56.0328 35.0831C56.1601 35.8084 56.2576 36.5337 56.3255 37.2633C56.4952 39.0491 56.4952 40.8518 56.3255 42.6375L56.3297 42.6291Z" fill="var(--fill-0, #F83289)"/>
</svg>
