<svg preserveAspectRatio="none" width="100%" height="100%" overflow="visible" style="display: block;" viewBox="0 0 27.3589 41.8825" fill="none" xmlns="http://www.w3.org/2000/svg">
<path id="Vector" d="M25.535 27.2402C25.7047 28.4406 25.7047 29.6622 25.535 30.8626C25.272 32.712 24.6103 34.5189 23.5414 36.1308C23.0748 36.8391 22.5319 37.5093 21.9084 38.1286C21.2848 38.7479 20.6146 39.2951 19.9105 39.7617C18.2987 40.8306 16.4917 41.4965 14.6423 41.7553C13.4419 41.9249 12.2203 41.9249 11.0199 41.7553C9.17055 41.4923 7.36359 40.8306 5.75174 39.7617C5.04338 39.2951 4.37743 38.7521 3.7539 38.1286C3.13037 37.5051 2.58743 36.8349 2.12085 36.1308C1.05194 34.5147 0.390236 32.712 0.127251 30.8626C-0.042417 29.6622 -0.042417 28.4406 0.127251 27.2402C0.390236 25.3908 1.05194 23.5838 2.12085 21.972C2.58743 21.2636 3.13461 20.5977 3.7539 19.9742L23.7281 0L27.3589 3.63089L7.38479 23.605C6.9479 24.0419 6.57463 24.5213 6.26499 25.026C6.12501 25.2551 5.99776 25.4926 5.88323 25.7301C5.81961 25.8616 5.76446 25.9931 5.70932 26.1246C5.68387 26.1925 5.65418 26.2603 5.62873 26.324C5.55238 26.5276 5.48451 26.7312 5.42937 26.9348C5.40816 27.0026 5.3912 27.0748 5.37423 27.1426C5.11125 28.1818 5.06883 29.2635 5.24274 30.3197C5.25546 30.3918 5.26819 30.4596 5.28091 30.5317C5.30636 30.6717 5.3403 30.8117 5.37423 30.9517C5.3912 31.0195 5.40816 31.0916 5.42937 31.1595C5.48027 31.3334 5.53117 31.5031 5.5948 31.6727C5.62025 31.7406 5.6457 31.8085 5.67115 31.8764C5.72205 32.0121 5.78143 32.1436 5.84082 32.2751C5.85778 32.309 5.87051 32.3387 5.88748 32.3726C6.09532 32.8053 6.34133 33.2252 6.63401 33.6197C6.85882 33.9293 7.11332 34.222 7.39328 34.502C7.47387 34.5826 7.55446 34.6589 7.63505 34.7353C7.67747 34.7734 7.71564 34.8116 7.75806 34.8455C7.8429 34.9177 7.92773 34.9898 8.01256 35.0576C8.48339 35.4351 8.98815 35.7533 9.51837 36.0035C11.6138 37.0003 14.0655 37.0003 16.1609 36.0035C16.6911 35.749 17.1958 35.4351 17.6667 35.0534C17.7515 34.9855 17.8363 34.9134 17.9212 34.8413C18.0442 34.731 18.1672 34.6165 18.286 34.4977C18.4471 34.3365 18.5956 34.1754 18.7398 34.0057C18.8119 33.9208 18.8798 33.836 18.9477 33.7512C19.1131 33.5349 19.27 33.31 19.41 33.081C19.55 32.8519 19.6772 32.6144 19.7918 32.3769C19.8554 32.2454 19.9105 32.1139 19.9657 31.9824C19.9911 31.9145 20.0208 31.8467 20.0463 31.783C20.1226 31.5794 20.1905 31.3758 20.2456 31.1722C20.2668 31.1044 20.2838 31.0323 20.3008 30.9644C20.5637 29.9252 20.6062 28.8435 20.4323 27.7874C20.4195 27.7153 20.4068 27.6474 20.3941 27.5753C20.3686 27.4353 20.3347 27.2953 20.3008 27.1553C20.2838 27.0875 20.2668 27.0154 20.2456 26.9475C20.1947 26.7736 20.1438 26.6039 20.0802 26.4343C20.0547 26.3664 20.0293 26.2985 20.0038 26.2307C19.9529 26.0949 19.8936 25.9634 19.8342 25.8319C19.8172 25.798 19.8045 25.7641 19.7875 25.7344C19.7875 25.7344 19.7875 25.7301 19.7875 25.7259L14.7993 30.7141C14.7781 30.7438 14.7526 30.7693 14.7314 30.7947C14.706 30.8202 14.6848 30.8456 14.6593 30.8711C13.6583 31.8721 12.0294 31.8721 11.0284 30.8711C10.9181 30.7608 10.8206 30.642 10.7357 30.5233C10.6127 30.3493 10.5152 30.1585 10.4431 29.9676C10.4303 29.9294 10.4134 29.887 10.4006 29.8488C10.3752 29.7682 10.354 29.6876 10.337 29.607C10.3285 29.5689 10.32 29.5265 10.3116 29.484C10.3031 29.4416 10.2988 29.4034 10.2946 29.361C10.2691 29.1574 10.2691 28.9496 10.2946 28.746C10.2988 28.7036 10.3073 28.6654 10.3116 28.623C10.32 28.5806 10.3285 28.5424 10.337 28.5C10.3625 28.3727 10.4006 28.2497 10.4515 28.1267C10.4727 28.0758 10.494 28.0207 10.5152 27.9698C10.5321 27.9316 10.5491 27.8934 10.5703 27.8552C10.6085 27.7789 10.6509 27.7068 10.6976 27.6389C10.7103 27.6219 10.723 27.605 10.7357 27.5838C10.7951 27.4947 10.863 27.4098 10.9393 27.3293C10.969 27.2953 10.9987 27.2656 11.0284 27.2317H11.0242L17.8788 20.3686H17.883L19.9232 18.3326C20.6316 18.7992 21.3018 19.3464 21.9211 19.9657C22.5404 20.585 23.0876 21.2594 23.5541 21.9635C24.623 23.5796 25.289 25.3823 25.5477 27.2317L25.535 27.2402Z" fill="var(--fill-0, white)"/>
</svg>
