<svg preserveAspectRatio="none" width="100%" height="100%" overflow="visible" style="display: block;" viewBox="0 0 16 12.2488" fill="none" xmlns="http://www.w3.org/2000/svg">
<path id="check" d="M5.47164 8.74981L13.9057 0.249023C14.1127 0.035215 14.3823 0 15.0073 0C15.2833 0 15.4826 0.355739 15.6896 0.569547C15.8965 0.783356 16 1.03725 16 1.33124C16 1.62523 15.8965 1.87912 15.6896 2.09293L6.19595 11.9281C5.98901 12.1419 5.74757 12.2488 5.47164 12.2488C5.19572 12.2488 4.95428 12.1419 4.74733 11.9281L0.298002 7.33124C0.0910561 7.11743 -0.00810537 6.86353 0.000517364 6.56955C0.0091401 6.27556 0.0910561 6.02254 0.298002 5.80873C0.504947 5.59492 1.25732 5 1.25732 5C1.54187 5 1.67538 5.27333 1.88232 5.48714L5.47164 8.74981Z" fill="var(--fill-0, #1E1F22)"/>
</svg>
