<svg width="16" height="16" viewBox="0 0 16 16" fill="none" xmlns="http://www.w3.org/2000/svg">
  <path d="M14.4556 14.9556C14.1549 15.2562 13.6674 15.2562 13.3667 14.9556L9.644 11.2329C9.2837 10.8726 8.71354 10.8517 8.25999 11.0839C8.07288 11.1797 7.87603 11.2647 7.66944 11.3389C7.16389 11.5204 6.62593 11.6111 6.05556 11.6111C4.64259 11.6111 3.44676 11.1218 2.46806 10.1431C1.48935 9.16435 1 7.96852 1 6.55556C1 5.14259 1.48935 3.94676 2.46806 2.96806C3.44676 1.98935 4.64259 1.5 6.05556 1.5C7.46852 1.5 8.66435 1.98935 9.64306 2.96806C10.6218 3.94676 11.1111 5.14259 11.1111 6.55556C11.1111 7.12593 11.0204 7.66389 10.8389 8.16944C10.7647 8.37603 10.6797 8.57288 10.5839 8.75999C10.3517 9.21354 10.3726 9.7837 10.7329 10.144L14.4556 13.8667C14.7562 14.1674 14.7562 14.6549 14.4556 14.9556ZM6.05556 10.0556C7.02778 10.0556 7.85417 9.71528 8.53472 9.03472C9.21528 8.35417 9.55556 7.52778 9.55556 6.55556C9.55556 5.58333 9.21528 4.75694 8.53472 4.07639C7.85417 3.39583 7.02778 3.05556 6.05556 3.05556C5.08333 3.05556 4.25694 3.39583 3.57639 4.07639C2.89583 4.75694 2.55556 5.58333 2.55556 6.55556C2.55556 7.52778 2.89583 8.35417 3.57639 9.03472C4.25694 9.71528 5.08333 10.0556 6.05556 10.0556Z" fill="#2F8C88"/>
</svg>
