<svg preserveAspectRatio="none" width="100%" height="100%" overflow="visible" style="display: block;" viewBox="0 0 18 18" fill="none" xmlns="http://www.w3.org/2000/svg">
<g id="Icon/people">
<mask id="mask0_0_88" style="mask-type:alpha" maskUnits="userSpaceOnUse" x="0" y="0" width="18" height="18">
<rect id="Bounding box" width="18" height="18" fill="var(--fill-0, #D9D9D9)"/>
</mask>
<g mask="url(#mask0_0_88)">
<path id="primary" d="M7.70625 9C7.35625 9 7.06875 8.825 6.84375 8.475C6.61875 8.125 6.5375 7.71667 6.6 7.25L6.825 5.45C6.925 4.73333 7.17813 4.14583 7.58438 3.6875C7.99063 3.22917 8.4625 3 9 3C9.55 3 10.0281 3.22917 10.4344 3.6875C10.8406 4.14583 11.0938 4.73333 11.1938 5.45L11.4188 7.25C11.4813 7.71667 11.4 8.125 11.175 8.475C10.95 8.825 10.6625 9 10.3125 9H7.70625ZM8.15625 7H9.8625L9.7125 5.775C9.6875 5.54167 9.60625 5.35417 9.46875 5.2125C9.33125 5.07083 9.175 5 9 5C8.825 5 8.67187 5.07083 8.54062 5.2125C8.40937 5.35417 8.33125 5.54167 8.30625 5.775L8.15625 7ZM2.325 9.975C2.0375 9.99167 1.79062 9.91667 1.58437 9.75C1.37812 9.58333 1.24375 9.325 1.18125 8.975C1.15625 8.825 1.15 8.675 1.1625 8.525C1.175 8.375 1.20625 8.23333 1.25625 8.1C1.25625 8.11667 1.25 8.08333 1.2375 8C1.2125 7.96667 1.15 7.76667 1.05 7.4C1.025 7.2 1.04375 7.00833 1.10625 6.825C1.16875 6.64167 1.25 6.48333 1.35 6.35L1.3875 6.3C1.4125 5.98333 1.50937 5.71667 1.67812 5.5C1.84687 5.28333 2.05625 5.175 2.30625 5.175C2.34375 5.175 2.4625 5.20833 2.6625 5.275L2.71875 5.25C2.78125 5.16667 2.8625 5.10417 2.9625 5.0625C3.0625 5.02083 3.16875 5 3.28125 5C3.41875 5 3.54063 5.02917 3.64688 5.0875C3.75313 5.14583 3.8375 5.23333 3.9 5.35C3.9125 5.35 3.92188 5.35417 3.92813 5.3625C3.93438 5.37083 3.94375 5.375 3.95625 5.375C4.13125 5.39167 4.28438 5.4625 4.41563 5.5875C4.54688 5.7125 4.64375 5.88333 4.70625 6.1C4.73125 6.21667 4.74063 6.32917 4.73438 6.4375C4.72812 6.54583 4.7125 6.65 4.6875 6.75C4.6875 6.76667 4.69375 6.8 4.70625 6.85C4.79375 6.96667 4.8625 7.09583 4.9125 7.2375C4.9625 7.37917 4.9875 7.525 4.9875 7.675C4.9875 7.74167 4.95 7.91667 4.875 8.2C4.8625 8.23333 4.8625 8.26667 4.875 8.3L4.9125 8.7C4.9125 9.05 4.80313 9.35 4.58438 9.6C4.36563 9.85 4.1 9.975 3.7875 9.975H2.325ZM15 10C14.5875 10 14.2344 9.80417 13.9406 9.4125C13.6469 9.02083 13.5 8.55 13.5 8C13.5 7.8 13.5219 7.6125 13.5656 7.4375C13.6094 7.2625 13.6688 7.09167 13.7438 6.925L13.2188 6.3C13.0938 6.16667 13.0719 6 13.1531 5.8C13.2344 5.6 13.35 5.5 13.5 5.5H15C15.4125 5.5 15.7656 5.69583 16.0594 6.0875C16.3531 6.47917 16.5 6.95 16.5 7.5V8C16.5 8.55 16.3531 9.02083 16.0594 9.4125C15.7656 9.80417 15.4125 10 15 10ZM0 14V13.425C0 12.6917 0.278125 12.1042 0.834375 11.6625C1.39062 11.2208 2.1125 11 3 11C3.1625 11 3.31875 11.0042 3.46875 11.0125C3.61875 11.0208 3.7625 11.0417 3.9 11.075C3.725 11.4083 3.59375 11.7667 3.50625 12.15C3.41875 12.5333 3.375 12.9417 3.375 13.375V15H0.75C0.5375 15 0.359375 14.9042 0.215625 14.7125C0.071875 14.5208 0 14.2833 0 14ZM4.5 14V13.375C4.5 12.2917 4.91562 11.4167 5.74687 10.75C6.57812 10.0833 7.6625 9.75 9 9.75C10.35 9.75 11.4375 10.0833 12.2625 10.75C13.0875 11.4167 13.5 12.2917 13.5 13.375V14C13.5 14.2833 13.4281 14.5208 13.2844 14.7125C13.1406 14.9042 12.9625 15 12.75 15H5.25C5.0375 15 4.85937 14.9042 4.71562 14.7125C4.57187 14.5208 4.5 14.2833 4.5 14ZM15 11C15.9 11 16.625 11.2208 17.175 11.6625C17.725 12.1042 18 12.6917 18 13.425V14C18 14.2833 17.9281 14.5208 17.7844 14.7125C17.6406 14.9042 17.4625 15 17.25 15H14.625V13.375C14.625 12.9417 14.5844 12.5333 14.5031 12.15C14.4219 11.7667 14.3 11.4083 14.1375 11.075C14.275 11.0417 14.4156 11.0208 14.5594 11.0125C14.7031 11.0042 14.85 11 15 11ZM8.15625 7L8.30625 5.775C8.33125 5.54167 8.40937 5.35417 8.54062 5.2125C8.67187 5.07083 8.825 5 9 5C9.175 5 9.33125 5.07083 9.46875 5.2125C9.60625 5.35417 9.6875 5.54167 9.7125 5.775L9.8625 7H8.15625Z" fill="var(--fill-0, #59636E)"/>
</g>
</g>
</svg>
