<svg width="24" height="24" viewBox="0 0 24 24" fill="none" xmlns="http://www.w3.org/2000/svg">
  <path d="M9.55 15.15L18.025 6.675C18.225 6.475 18.458 6.375 18.725 6.375C18.992 6.375 19.225 6.475 19.425 6.675C19.625 6.875 19.725 7.113 19.725 7.388C19.725 7.663 19.625 7.9 19.425 8.1L10.25 17.3C10.05 17.5 9.817 17.6 9.55 17.6C9.283 17.6 9.05 17.5 8.85 17.3L4.55 13C4.35 12.8 4.254 12.562 4.262 12.287C4.271 12.012 4.375 11.775 4.575 11.575C4.775 11.375 5.013 11.275 5.288 11.275C5.563 11.275 5.8 11.375 6 11.575L9.55 15.15Z" fill="black"/>
</svg>
