<svg width="20" height="20" viewBox="0 0 20 20" fill="none" xmlns="http://www.w3.org/2000/svg">
  <path fill-rule="evenodd" clip-rule="evenodd" d="M0.00016276 2.03451e-05C1.14183 0.77502 1.94183 1.82502 1.94183 3.22502V5.72502H5.27516V3.22502C5.27516 1.40835 2.30016 0.333354 0.00016276 2.03451e-05Z" fill="#59636E" transform="translate(13.894 10.942)"/>
  <path d="M3.3335 6.66667C5.17445 6.66667 6.66683 5.17428 6.66683 3.33333C6.66683 1.49238 5.17445 0 3.3335 0C1.49255 0 0.00016276 1.49238 0.00016276 3.33333C0.00016276 5.17428 1.49255 6.66667 3.3335 6.66667Z" fill="#59636E" transform="translate(4.168 3.334)"/>
  <path fill-rule="evenodd" clip-rule="evenodd" d="M1.1085 6.66667C2.95016 6.66667 4.44183 5.175 4.44183 3.33333C4.44183 1.49167 2.95016 0 1.1085 0C0.716829 0 0.350163 0.0833331 0.00016276 0.2C0.691829 1.05833 1.1085 2.15 1.1085 3.33333C1.1085 4.51667 0.691829 5.60833 0.00016276 6.46667C0.350163 6.58333 0.716829 6.66667 1.1085 6.66667Z" fill="#59636E" transform="translate(11.394 3.334)"/>
  <path fill-rule="evenodd" clip-rule="evenodd" d="M6.66667 0C4.44167 0 0 1.11667 0 3.33333V5.83333H13.3333V3.33333C13.3333 1.11667 8.89167 0 6.66667 0Z" fill="#59636E" transform="translate(0.838 10.834)"/>
</svg>
