<svg width="19" height="15" viewBox="0 0 18.3335 14.1667" fill="none" xmlns="http://www.w3.org/2000/svg">
  <path d="M16.6667 0.416667C15.7417 0.125 14.725 0 13.75 0C12.125 0 10.375 0.333333 9.16667 1.25C7.95833 0.333333 6.20833 0 4.58333 0C2.95833 0 1.20833 0.333333 0 1.25V13.4583C0 13.6667 0.208333 13.875 0.416667 13.875C0.5 13.875 0.541667 13.8333 0.625 13.8333C1.75 13.2917 3.375 12.9167 4.58333 12.9167C6.20833 12.9167 7.95833 13.25 9.16667 14.1667C10.2917 13.4583 12.3333 12.9167 13.75 12.9167C15.125 12.9167 16.5417 13.1667 17.7083 13.7917C17.7917 13.8333 17.8333 13.8333 17.9167 13.8333C18.125 13.8333 18.3333 13.625 18.3333 13.4167V1.25C17.8333 0.875 17.2917 0.625 16.6667 0.416667ZM16.6667 11.6667C15.75 11.375 14.75 11.25 13.75 11.25C12.3333 11.25 10.2917 11.7917 9.16667 12.5V2.91667C10.2917 2.20833 12.3333 1.66667 13.75 1.66667C14.75 1.66667 15.75 1.79167 16.6667 2.08333V11.6667Z" fill="#2f8c88"/>
  <path d="M13.7513 5C14.4846 5 15.193 5.075 15.8346 5.21667V3.95C15.1763 3.825 14.468 3.75 13.7513 3.75C12.3346 3.75 11.0513 3.99167 10.0013 4.44167V5.825C10.943 5.29167 12.2513 5 13.7513 5Z" fill="#2f8c88"/>
  <path d="M10.0013 6.65836V8.04169C10.943 7.50836 12.2513 7.21669 13.7513 7.21669C14.4846 7.21669 15.193 7.29169 15.8346 7.43336V6.16669C15.1763 6.04169 14.468 5.96669 13.7513 5.96669C12.3346 5.96669 11.0513 6.21669 10.0013 6.65836Z" fill="#2f8c88"/>
  <path d="M13.7513 8.19163C12.3346 8.19163 11.0513 8.4333 10.0013 8.8833V10.2666C10.943 9.7333 12.2513 9.44163 13.7513 9.44163C14.4846 9.44163 15.193 9.51663 15.8346 9.6583V8.39163C15.1763 8.2583 14.468 8.19163 13.7513 8.19163Z" fill="#2f8c88"/>
</svg>
